<?xml version="1.0" encoding="UTF-8" standalone="no"?>
<!-- Created with Inkscape (http://www.inkscape.org/) -->

<svg
   width="210mm"
   height="210mm"
   viewBox="0 0 210 210"
   version="1.1"
   id="svg1"
   xml:space="preserve"
   inkscape:version="1.3.2 (091e20e, 2023-11-25, custom)"
   sodipodi:docname="bdebaroKeyboard.svg"
   inkscape:export-filename="bdebaroKeyboard.png"
   inkscape:export-xdpi="96"
   inkscape:export-ydpi="96"
   xmlns:inkscape="http://www.inkscape.org/namespaces/inkscape"
   xmlns:sodipodi="http://sodipodi.sourceforge.net/DTD/sodipodi-0.dtd"
   xmlns="http://www.w3.org/2000/svg"
   xmlns:svg="http://www.w3.org/2000/svg"><sodipodi:namedview
     id="namedview1"
     pagecolor="#505050"
     bordercolor="#eeeeee"
     borderopacity="1"
     inkscape:showpageshadow="0"
     inkscape:pageopacity="0"
     inkscape:pagecheckerboard="0"
     inkscape:deskcolor="#d1d1d1"
     inkscape:document-units="mm"
     inkscape:zoom="0.70024616"
     inkscape:cx="187.07707"
     inkscape:cy="239.2016"
     inkscape:window-width="2482"
     inkscape:window-height="1417"
     inkscape:window-x="-8"
     inkscape:window-y="-8"
     inkscape:window-maximized="1"
     inkscape:current-layer="layer1" /><defs
     id="defs1"><rect
       x="-762.58897"
       y="121.38588"
       width="405.57166"
       height="277.04543"
       id="rect9" /><rect
       x="245.62791"
       y="34.273662"
       width="268.26384"
       height="68.960495"
       id="rect4" /></defs><g
     inkscape:label="Layer 1"
     inkscape:groupmode="layer"
     id="layer1"><circle
       style="fill:#fc6917;stroke:#000000;stroke-width:4;stroke-dasharray:none;stroke-opacity:1;fill-opacity:1"
       id="path1"
       cx="105"
       cy="105"
       r="102.99998" /><circle
       style="fill:#ffffff;fill-opacity:1;stroke:#000000;stroke-width:4;stroke-dasharray:none;stroke-opacity:1"
       id="path3"
       cx="-105"
       cy="-105"
       r="83.374893"
       transform="matrix(0,-1,-1,0,0,0)" /><text
       xml:space="preserve"
       style="font-size:3.175px;fill:none;fill-opacity:1;stroke:#000000;stroke-width:4;stroke-dasharray:none;stroke-opacity:1"
       x="63.477676"
       y="22.670597"
       id="text3"><tspan
         sodipodi:role="line"
         id="tspan3"
         style="stroke-width:4"></tspan></text><path
       d="m 54.816227,30.447381 q 0.537466,-0.309197 0.855215,-0.655748 0.317749,-0.346551 0.437159,-0.708277 0.12216,-0.371929 0.06364,-0.743332 -0.06226,-0.377879 -0.274594,-0.746982 -0.413506,-0.71878 -1.163487,-0.838915 -0.753707,-0.126611 -1.776835,0.461983 l -2.007403,1.154834 1.858911,3.231272 z m -6.202061,-6.136571 1.821659,3.166516 1.657726,-0.95367 q 0.530991,-0.305472 0.852465,-0.645548 0.327951,-0.3438 0.461286,-0.696302 0.139811,-0.356226 0.09521,-0.718404 -0.04833,-0.368652 -0.249493,-0.718329 -0.473109,-0.822388 -1.181312,-0.914846 -0.71193,-0.09893 -1.748009,0.497109 z m 1.139564,-1.974224 q 0.854765,-0.491735 1.566795,-0.677274 0.718504,-0.189262 1.292322,-0.105682 0.580294,0.07986 1.028852,0.425109 0.444834,0.338776 0.768932,0.902143 0.197439,0.343202 0.269895,0.723831 0.0752,0.370428 0.01797,0.765333 -0.05724,0.394905 -0.260821,0.80506 -0.20084,0.399955 -0.562944,0.789259 1.134887,-0.394329 1.955649,-0.151159 0.823511,0.23297 1.322699,1.100685 0.339,0.58927 0.398229,1.201591 0.0657,0.608597 -0.154039,1.200415 -0.213266,0.588095 -0.710205,1.132536 -0.500664,0.537964 -1.277723,0.984998 l -3.276601,1.884988 -5.338315,-9.279383 z m 23.31502,-4.58084 q 0.417706,1.127902 0.402887,2.18496 -0.01481,1.057056 -0.422461,1.956867 -0.407643,0.899811 -1.190466,1.603975 -0.778411,0.694565 -1.885297,1.104488 l -3.748,1.38803 -3.717846,-10.039033 3.747999,-1.388031 q 1.106885,-0.409923 2.152525,-0.38291 1.050053,0.01741 1.948046,0.441663 0.8954,0.417242 1.595153,1.209665 0.699754,0.792424 1.11746,1.920326 z m -1.394116,0.516295 q -0.342467,-0.92474 -0.864492,-1.559922 -0.522025,-0.635183 -1.171195,-0.968353 -0.64917,-0.33317 -1.406286,-0.355505 -0.757116,-0.02234 -1.569766,0.278621 l -2.388911,0.884708 2.903187,7.839272 2.388913,-0.884706 q 0.81265,-0.300956 1.372587,-0.811048 0.559939,-0.510092 0.838103,-1.178723 0.27557,-0.675637 0.257948,-1.49762 -0.01762,-0.821984 -0.360088,-1.746724 z m 17.561468,-0.01211 0.218438,1.159989 -6.474733,1.261748 -2.047663,-10.507695 6.474729,-1.2617484 0.225772,1.1585584 -5.0522,0.984537 0.680181,3.490343 4.091619,-0.797345 0.2172,1.114564 -4.091629,0.797345 0.698753,3.585668 z m 12.138308,-1.074475 q 0.61958,-0.0245 1.06186,-0.184025 0.44227,-0.159534 0.7159,-0.424549 0.2808,-0.272774 0.4013,-0.628928 0.1202,-0.36362 0.10342,-0.789111 -0.0328,-0.828588 -0.64136,-1.283024 -0.60891,-0.461899 -1.78833,-0.415279 l -2.314079,0.09147 0.147238,3.724914 z m -2.646318,-8.3138474 0.144286,3.6502664 1.910972,-0.07554 q 0.61212,-0.0242 1.0547,-0.176265 0.45004,-0.152365 0.73171,-0.402744 0.28915,-0.250675 0.41771,-0.592195 0.12824,-0.348986 0.11235,-0.752082 -0.0374,-0.9480247 -0.62191,-1.3585544 -0.58472,-0.417997 -1.77909,-0.370786 z m 1.925558,-1.220006 q 0.98534,-0.03895 1.70216,0.127105 0.7243,0.165756 1.19381,0.506067 0.47698,0.340014 0.71411,0.85399 0.23683,0.5065107 0.26251,1.1559444 0.0156,0.395633 -0.0968,0.766422 -0.1053,0.363029 -0.33922,0.686286 -0.23394,0.323257 -0.60462,0.592107 -0.3635,0.261091 -0.8649,0.437914 1.18828,0.177324 1.80249,0.773589 0.62137,0.588504 0.66091,1.588782 0.0268,0.679293 -0.20482,1.249182 -0.2242,0.569594 -0.69349,0.991871 -0.46181,0.421981 -1.15465,0.67366 -0.69312,0.244214 -1.58889,0.279621 L 97.665082,18.483445 97.242254,7.7864476 Z m 18.86388,7.6448304 -1.14343,-4.526258 q -0.0507,-0.201826 -0.10165,-0.463881 -0.05,-0.269472 -0.0891,-0.5677067 -0.2287,0.5817837 -0.4405,0.9624347 l -2.19289,4.113473 z m 2.51686,4.309284 -1.11242,-0.135123 q -0.19281,-0.02342 -0.29976,-0.134244 -0.10694,-0.110823 -0.14826,-0.26635 l -0.68206,-2.686672 -4.76855,-0.579226 -1.30544,2.445253 q -0.0607,0.128084 -0.1994,0.216596 -0.13868,0.0885 -0.32408,0.06599 l -1.11241,-0.135124 5.54029,-10.1110694 1.45355,0.17656 z M 133.87644,16.7784 q 0.60309,0.173415 1.10387,0.161945 0.51003,-0.01659 0.89515,-0.19346 0.39435,-0.181991 0.65965,-0.509916 0.26531,-0.327926 0.39538,-0.780245 0.26424,-0.918999 -0.20467,-1.559091 -0.46889,-0.640093 -1.67508,-0.98692 l -1.52209,-0.437664 -1.11688,3.884204 z m 3.22731,6.672447 -1.2349,-0.355085 q -0.38054,-0.109412 -0.47538,-0.455394 l -1.61383,-4.44397 q -0.0725,-0.207408 -0.19547,-0.320494 -0.11376,-0.118201 -0.40807,-0.202844 l -1.0554,-0.303473 -1.23455,4.293446 -1.38568,-0.39844 2.95837,-10.288474 2.90776,0.836103 q 0.97644,0.280766 1.62942,0.686177 0.65505,0.398232 1.00719,0.9037 0.35933,0.507532 0.42913,1.102826 0.0719,0.588114 -0.116,1.241465 -0.15689,0.545655 -0.46545,0.969967 -0.30858,0.424312 -0.74825,0.70987 -0.43044,0.280442 -0.98069,0.409836 -0.54306,0.131459 -1.1782,0.09653 0.2223,0.227157 0.33356,0.570084 z m 18.31691,2.170801 q -0.52136,1.083901 -1.30185,1.827614 -0.77727,0.736981 -1.71747,1.088863 -0.94021,0.351882 -1.997,0.291225 -1.04683,-0.06415 -2.11053,-0.575785 -1.06371,-0.511632 -1.76728,-1.289408 -0.70033,-0.784508 -1.01233,-1.738692 -0.312,-0.954185 -0.22144,-2.02146 0.0938,-1.074008 0.61515,-2.157908 0.52136,-1.0839 1.29862,-1.820881 0.78051,-0.743713 1.72071,-1.095596 0.94345,-0.358613 1.9935,-0.301195 1.05007,0.05742 2.11376,0.569052 1.06371,0.511633 1.76405,1.296141 0.70707,0.787746 1.01582,1.748662 0.312,0.954184 0.2182,2.028193 -0.0906,1.067275 -0.61191,2.151175 z m -1.33973,-0.644398 q 0.42744,-0.888663 0.52508,-1.71213 0.0977,-0.823465 -0.11352,-1.521911 -0.20795,-0.705178 -0.7145,-1.272127 -0.50654,-0.566948 -1.28749,-0.942578 -0.77421,-0.37239 -1.53335,-0.41422 -0.75911,-0.04182 -1.44658,0.23267 -0.67747,0.271005 -1.25984,0.861323 -0.58238,0.590317 -1.00982,1.47898 -0.42744,0.888663 -0.52509,1.71213 -0.0944,0.816733 0.11353,1.521911 0.21792,0.701684 0.72446,1.268633 0.50979,0.560217 1.284,0.932607 0.78095,0.37563 1.53684,0.424191 0.75912,0.04184 1.43661,-0.229175 0.68071,-0.277739 1.25984,-0.861324 0.58239,-0.590316 1.00981,-1.47898 z"
       id="text7"
       style="font-size:12.7px;font-family:Lato;-inkscape-font-specification:Lato;text-align:center;letter-spacing:5.29167px;text-anchor:middle;stroke-width:4;stroke-dasharray:none"
       aria-label="BDEBARO" /><path
       d="m 38.812681,176.60299 -0.827287,0.84195 -4.73442,-4.59341 7.454546,-7.68338 4.734421,4.59341 -0.821926,0.84715 -3.694241,-3.58421 -2.476179,2.5522 2.991854,2.90274 -0.790713,0.81498 -2.991852,-2.90273 -2.543807,2.62187 z m 18.75135,2.30647 -6.11379,8.78784 -0.594851,-0.41384 q -0.141046,-0.0981 -0.205035,-0.21545 -0.05786,-0.11306 -0.06877,-0.29357 L 50.1055,176.6145 q -0.0944,0.16184 -0.190658,0.31329 -0.09626,0.15145 -0.185856,0.28022 l -4.356022,6.26126 -1.042522,-0.72529 6.113791,-8.78784 0.613247,0.42665 q 0.07971,0.0554 0.126382,0.10611 0.05093,0.0445 0.07679,0.099 0.03013,0.0482 0.04319,0.12105 0.01733,0.0667 0.02373,0.16211 l 0.48035,10.15381 q 0.09866,-0.16797 0.18879,-0.32368 0.10053,-0.15758 0.19439,-0.29249 l 4.330424,-6.22447 z m 12.308179,7.74607 -3.12962,-1.49033 -4.079135,8.56599 -1.30176,-0.6199 4.079135,-8.56599 -3.136364,-1.49355 0.523543,-1.09941 7.567744,3.60377 z m 9.904372,12.09311 -0.350223,1.12722 -6.311744,-1.91731 3.111561,-10.24319 6.311745,1.91733 -0.343076,1.12938 -4.925018,-1.49606 -1.033568,3.40248 3.988621,1.21161 -0.330047,1.08651 -3.988622,-1.21162 -1.061796,3.49541 z m 11.442663,-2.14684 q 0.621152,0.0893 1.115657,0.01 0.502971,-0.0862 0.860248,-0.31415 0.365742,-0.23425 0.583676,-0.59539 0.217924,-0.36115 0.284866,-0.82701 0.135991,-0.94651 -0.416095,-1.51641 -0.552095,-0.5699 -1.79439,-0.7484 l -1.567667,-0.22525 -0.5748,4.00051 z m 4.110095,6.168 -1.271886,-0.18275 q -0.391914,-0.0564 -0.533219,-0.38605 l -2.206819,-4.1813 q -0.100209,-0.19554 -0.237476,-0.29074 -0.12881,-0.10152 -0.432,-0.14507 l -1.08701,-0.15619 -0.635361,4.422 -1.427162,-0.20506 1.522523,-10.59654 2.994829,0.43031 q 1.005676,0.14449 1.708,0.45673 0.703381,0.30484 1.121391,0.75736 0.4254,0.45359 0.576009,1.03372 0.151676,0.57274 0.05495,1.24567 -0.08076,0.56198 -0.328342,1.02453 -0.247591,0.46254 -0.644058,0.80559 -0.388009,0.3367 -0.915371,0.54019 -0.519962,0.20454 -1.153905,0.25686 0.251295,0.1946 0.408448,0.51907 z m 10.77592,-4.79859 q 0.62001,-0.007 1.08879,-0.17657 0.47625,-0.16971 0.79419,-0.46465 0.32532,-0.30249 0.48506,-0.7152 0.15974,-0.41269 0.1542,-0.90573 -0.0117,-1.0234 -0.6529,-1.59147 -0.63394,-0.56817 -1.9188,-0.55374 l -1.71813,0.0193 0.0494,4.40737 z m -0.0622,-5.5503 q 1.01593,-0.0117 1.76563,0.21927 0.75708,0.22311 1.25497,0.65084 0.49788,0.42773 0.7438,1.0376 0.25339,0.60978 0.26186,1.36427 0.009,0.74701 -0.24612,1.36996 -0.2545,0.62295 -0.75743,1.07686 -0.49548,0.45382 -1.23964,0.71619 -0.73676,0.25481 -1.70788,0.26571 l -1.71813,0.0193 0.045,4.00398 -1.44172,0.0162 -0.12013,-10.70467 z m 14.14634,3.96235 q 0.61899,-0.10317 1.06604,-0.32915 0.45319,-0.23457 0.72461,-0.56002 0.27756,-0.33407 0.37583,-0.74427 0.0982,-0.41021 0.0209,-0.87444 -0.1572,-0.94324 -0.85602,-1.31905 -0.69882,-0.37583 -1.9368,-0.16949 l -1.56222,0.26036 0.66442,3.9866 z m 5.78583,4.63264 -1.26746,0.21123 q -0.39056,0.0651 -0.62513,-0.20633 l -3.37005,-3.31605 q -0.15475,-0.15597 -0.31441,-0.20509 -0.15352,-0.0578 -0.45565,-0.007 l -1.08324,0.18054 0.73443,4.40662 -1.42222,0.23704 -1.7599,-10.5597 2.98443,-0.49739 q 1.00217,-0.16702 1.76609,-0.0822 0.76268,0.0774 1.29816,0.38198 0.54284,0.30335 0.86216,0.81058 0.31809,0.49986 0.42985,1.17044 0.0933,0.56003 -0.002,1.07585 -0.0958,0.51583 -0.36967,0.96288 -0.26774,0.43846 -0.70864,0.79216 -0.43355,0.35249 -1.02184,0.59443 0.29845,0.10928 0.54653,0.3709 z m 8.8042,-2.41776 -1.38664,0.42155 -3.11375,-10.24253 1.38664,-0.42154 z m 9.7658,-13.49533 q -0.0159,0.12972 -0.0666,0.21773 -0.047,0.0781 -0.14936,0.12373 -0.116,0.0516 -0.32464,0.006 -0.20863,-0.0461 -0.50826,-0.0764 -0.29585,-0.04 -0.68192,-0.007 -0.37925,0.0297 -0.85016,0.23945 -0.44362,0.1975 -0.73017,0.47225 -0.28276,0.26489 -0.42367,0.57294 -0.13407,0.30501 -0.12553,0.63648 0.006,0.32465 0.14831,0.64541 0.18229,0.40949 0.50175,0.59438 0.32324,0.17502 0.73589,0.22028 0.4195,0.0422 0.89961,2.1e-4 0.48391,-0.0519 0.98755,-0.0961 0.51045,-0.0473 1.01184,-0.0415 0.50517,-0.004 0.96037,0.1367 0.46202,0.13778 0.84528,0.46598 0.39008,0.32517 0.66048,0.93258 0.28559,0.64155 0.31937,1.30523 0.0307,0.65686 -0.20706,1.26155 -0.23099,0.60165 -0.73889,1.11397 -0.50108,0.50927 -1.27911,0.85562 -0.95548,0.42536 -1.88543,0.43047 -0.93299,-9.5e-4 -1.74709,-0.34255 l 0.1027,-0.79803 q 0.0212,-0.0994 0.075,-0.18057 0.0576,-0.091 0.15314,-0.13359 0.0887,-0.0395 0.23134,-0.013 0.14641,0.0166 0.33834,0.062 0.19193,0.0454 0.43393,0.0931 0.242,0.0476 0.52266,0.0535 0.28748,0.002 0.6212,-0.0558 0.33067,-0.0654 0.70603,-0.23253 0.47092,-0.20964 0.78175,-0.50337 0.31081,-0.29374 0.46003,-0.6382 0.153,-0.35433 0.14367,-0.74268 -0.01,-0.38837 -0.1886,-0.79103 -0.19748,-0.44362 -0.5268,-0.63229 -0.32553,-0.19853 -0.73819,-0.2438 -0.41266,-0.0453 -0.89352,0.0134 -0.48391,0.0519 -0.98148,0.10976 -0.50058,0.0511 -1.00576,0.0551 -0.50518,0.004 -0.96341,-0.14352 -0.45824,-0.14764 -0.85744,-0.49329 -0.3954,-0.3555 -0.68404,-1.00387 -0.2309,-0.51868 -0.24869,-1.09137 -0.0106,-0.5757 0.20412,-1.12121 0.22192,-0.54855 0.6813,-1.0229 0.4662,-0.4774 1.19645,-0.80249 0.81899,-0.36458 1.60327,-0.403 0.79112,-0.0414 1.52174,0.22209 z m 16.43361,-0.45314 0.62544,1.00107 -5.5722,3.53056 -5.72967,-9.04299 5.57219,-3.53056 0.63174,0.99707 -4.34795,2.75488 1.90324,3.0038 3.52126,-2.23109 0.60776,0.9592 -3.52128,2.23109 1.95521,3.08585 z m 5.47986,-14.39198 q 0.0221,0.12878 -9.5e-4,0.22769 -0.0225,0.0884 -0.10742,0.16147 -0.0962,0.0829 -0.30932,0.0987 -0.21309,0.0159 -0.50872,0.0731 -0.29486,0.0469 -0.65516,0.18933 -0.35462,0.13768 -0.7453,0.47395 -0.36802,0.31678 -0.56341,0.66237 -0.19459,0.33506 -0.2409,0.67062 -0.0406,0.33069 0.063,0.64568 0.0987,0.30932 0.32774,0.57545 0.29241,0.33972 0.65155,0.42486 0.35992,0.0746 0.76816,-7.8e-4 0.4139,-0.0802 0.86163,-0.25864 0.44852,-0.18892 0.91811,-0.37624 0.47524,-0.19223 0.95709,-0.33098 0.48262,-0.14927 0.95909,-0.14541 0.48213,-9.5e-4 0.94362,0.20306 0.46713,0.19918 0.90087,0.70311 0.45811,0.53222 0.68143,1.15813 0.21845,0.62024 0.16468,1.26777 -0.0481,0.64268 -0.38711,1.27947 -0.33335,0.6319 -0.97882,1.18749 -0.79268,0.68229 -1.68183,0.95476 -0.89401,0.26682 -1.77177,0.17464 l -0.13128,-0.79383 q -0.009,-0.10129 0.0199,-0.1945 0.029,-0.10376 0.10824,-0.17201 0.0736,-0.0634 0.21781,-0.079 0.14499,-0.0262 0.34187,-0.038 0.19688,-0.0118 0.44235,-0.0358 0.24548,-0.024 0.51595,-0.099 0.27615,-0.08 0.57889,-0.23214 0.29786,-0.15781 0.60928,-0.42585 0.39068,-0.33627 0.60383,-0.70701 0.21315,-0.37076 0.25694,-0.74358 0.0446,-0.38337 -0.0761,-0.75261 -0.12069,-0.36925 -0.40823,-0.70332 -0.31677,-0.36803 -0.68645,-0.45396 -0.36887,-0.0965 -0.77711,-0.0211 -0.40825,0.0754 -0.85189,0.26997 -0.44851,0.18892 -0.90835,0.38759 -0.46471,0.193 -0.94735,0.34228 -0.48262,0.14929 -0.96396,0.13974 -0.48135,-0.01 -0.96311,-0.2257 -0.48098,-0.2267 -0.94396,-0.76459 -0.37038,-0.43032 -0.5522,-0.97365 -0.17617,-0.54821 -0.12713,-1.13254 0.0547,-0.5892 0.35815,-1.17568 0.30913,-0.59134 0.91496,-1.11282 0.67945,-0.58482 1.41952,-0.84726 0.74573,-0.26732 1.52127,-0.22517 z"
       id="text8"
       style="font-size:12.7px;font-family:Lato;-inkscape-font-specification:Lato;text-align:center;letter-spacing:5.29167px;text-anchor:middle;stroke-width:4;stroke-dasharray:none"
       aria-label="ENTERPRISES" /><g
       style="fill:#000000;fill-opacity:1"
       id="g8"
       transform="matrix(4.8125613,0,0,4.8125613,27.999019,16.743897)"><path
         d="M 27,29.016 H 5 c -1.105,0 -2,-0.896 -2,-2 v -13 c 0,-1.104 0.895,-2 2,-2 l 1.058,0.006 c 0,-1.634 0.497,-2.694 1.492,-3.807 0.994,-1.112 2.229,-1.668 3.702,-1.668 0.699,0 1.474,0.118 2.323,0.354 0,0 1.847,0.614 3.129,0.614 1.957,0 3.291,-0.858 4.001,-2.574 0.333,-0.825 0.672,-1.238 1.017,-1.238 0.494,0 0.742,0.23 0.742,0.691 0,0.815 -0.441,1.717 -1.322,2.703 -1.182,1.341 -2.638,2.012 -4.367,2.012 -1.343,0 -3.644,-0.63 -3.644,-0.63 C 12.196,8.253 11.53,8.14 11.133,8.14 10.176,8.14 9.357,8.548 8.675,9.366 7.993,10.184 7.652,10.906 7.652,12.035 L 27,12.016 c 1.104,0 2,0.896 2,2 v 13 c 0,1.104 -0.896,2 -2,2 z m 1,-15 c 0,-0.553 -0.448,-1 -1,-1 H 5 c -0.553,0 -1,0.447 -1,1 v 13 c 0,0.552 0.447,1 1,1 h 22 c 0.552,0 1,-0.448 1,-1 z m -7.997,7.011 h 6.018 v 1.981 h -6.018 z m 1.985,-3 h 4.021 v 1.981 h -4.021 z m 2.019,-3.011 h 2.003 v 2.044 h -2.003 z m -2.97,0 h 1.961 v 2.044 h -1.961 z m -2.029,3.011 h 1.981 v 1.981 h -1.981 z m -0.983,-3.011 h 2.002 v 2.044 h -2.002 z m -2.071,3.011 h 2.044 v 1.981 h -2.044 z m -0.982,-3.011 h 2.044 v 2.044 h -2.044 z m -2.97,0 h 2.023 v 2.044 h -2.023 z m -3.074,0 h 2.065 V 17.06 H 8.928 Z M 6,15.016 H 8.044 V 17.06 H 6 Z m 6.018,4.993 H 6 v -1.981 h 6.018 z M 8.044,26.053 H 6 V 24.009 H 8.044 Z M 6.011,21.027 h 4.021 v 1.981 H 6.011 Z m 5.024,5.026 H 8.99 v -2.044 h 2.045 z m 4.969,-3.044 h -2.045 v -1.981 h 2.045 z m -2.991,0 h -2.044 v -1.981 h 2.044 z m 1.995,-3 h -2.045 v -1.981 h 2.045 z m 3.986,1.018 v 1.981 h -1.981 v -1.981 z m 1.013,5.026 h -7.963 v -2.044 h 7.963 z m 2.991,0 h -2.045 v -2.044 h 2.045 z m 2.99,0 h -1.981 v -2.044 h 1.981 z"
         id="path1-7"
         style="fill:#000000;fill-opacity:1" /></g><text
       xml:space="preserve"
       style="font-style:normal;font-variant:normal;font-weight:normal;font-stretch:normal;font-size:6.35px;line-height:1;font-family:Verdana;-inkscape-font-specification:Verdana;text-align:center;letter-spacing:1.32292px;text-anchor:middle;fill:#567c57;fill-opacity:1;stroke:none;stroke-width:4;stroke-dasharray:none;stroke-opacity:1"
       x="104.88728"
       y="162.30522"
       id="text9"><tspan
         sodipodi:role="line"
         id="tspan9"
         style="font-style:normal;font-variant:normal;font-weight:normal;font-stretch:normal;font-size:6.35px;font-family:Lato;-inkscape-font-specification:Lato;letter-spacing:1.32292px;fill:#000000;fill-opacity:1;stroke-width:4"
         x="105.54874"
         y="162.30522">EST 2003</tspan></text></g></svg>
