<svg width="512" height="533" viewBox="0 0 512 533" fill="none" xmlns="http://www.w3.org/2000/svg">
<path d="M143 472C143 468.686 145.686 466 149 466H362C365.314 466 368 468.686 368 472V493C368 496.314 365.314 499 362 499H149C145.686 499 143 496.314 143 493V472Z" fill="#F5F5F5"/>
<path d="M179 431C179 427.686 181.686 425 185 425H334C337.314 425 340 427.686 340 431V449C340 452.314 337.314 455 334 455H185C181.686 455 179 452.314 179 449V431Z" fill="#F5F5F5"/>
<path d="M143 207H368V237H143V207Z" fill="#F5F5F5"/>
<path d="M190 256C190 251.582 193.582 248 198 248H213C217.418 248 221 251.582 221 256V407C221 411.418 217.418 415 213 415H198C193.582 415 190 411.418 190 407V256Z" fill="#F5F5F5"/>
<path d="M240 256C240 251.582 243.582 248 248 248H263C267.418 248 271 251.582 271 256V407C271 411.418 267.418 415 263 415H248C243.582 415 240 411.418 240 407V256Z" fill="#F5F5F5"/>
<path d="M290 256C290 251.582 293.582 248 298 248H313C317.418 248 321 251.582 321 256V407C321 411.418 317.418 415 313 415H298C293.582 415 290 411.418 290 407V256Z" fill="#F5F5F5"/>
<path d="M172 242C172 261.33 156.33 277 137 277C117.67 277 102 261.33 102 242C102 222.67 117.67 207 137 207C156.33 207 172 222.67 172 242Z" fill="#F5F5F5"/>
<path d="M410 242C410 261.33 394.33 277 375 277C355.67 277 340 261.33 340 242C340 222.67 355.67 207 375 207C394.33 207 410 222.67 410 242Z" fill="#F5F5F5"/>
<path d="M367 180.483L270.25 116.521V107.497C288.812 102.637 301.75 85.9775 297.587 67.3342C294.663 54.3433 282.962 43.5342 268.225 40.5592C242.575 35.4025 219.625 52.5583 219.625 74.375H242.125C242.125 66.1442 249.663 59.5 259 59.5C268.337 59.5 275.875 66.1442 275.875 74.375C275.875 82.705 268.113 89.4483 258.663 89.25C252.588 89.1508 247.75 93.7125 247.75 99.0675V116.521L151 180.483C142.337 186.235 146.95 198.333 157.75 198.333H360.25C371.05 198.333 375.663 186.235 367 180.483ZM191.5 178.5L259 133.875L326.5 178.5H191.5Z" fill="#F5F5F5"/>
</svg>
